<?xml version="1.0"?>
<svg width="640" height="480" xmlns="http://www.w3.org/2000/svg" xmlns:svg="http://www.w3.org/2000/svg">
 <!-- Created with SVG-edit - http://svg-edit.googlecode.com/ -->
 <g>
  <title>Layer 1</title>
  <path d="m105,112c2,8.166664 2.655113,10.617737 3.407997,13.41333c0.823036,3.056091 1.696625,6.286499 2.592003,9.607498c0.896629,3.325668 1.772507,6.570465 2.592003,9.652512c1.415787,5.3246 1.96357,7.433929 2.403999,9.246658c0.395454,1.627625 0.741501,3.198074 1.066498,4.830002c0.360046,1.807922 0.741302,3.919937 1.2015,6.449997c1.236832,6.79985 2.056244,11.276382 3.014664,16.447998c1.071991,5.784439 2.249413,12.096237 3.513,18.852005c1.331009,7.116241 2.717491,14.508209 4.142998,22.091995c2.896286,15.408447 4.342255,23.07222 5.769333,30.641342c1.402588,7.439209 2.775009,14.713257 4.108505,21.787506c1.289169,6.839081 2.52742,13.40799 3.703506,19.672485c2.15387,11.472717 3.114105,16.622864 3.99733,21.393341c0.818253,4.419525 1.570755,8.519257 2.257492,12.329987c0.639633,3.549347 1.230042,6.868561 1.762512,9.990021c0.982117,5.757355 1.406235,8.452271 1.806656,11.023987c0.379349,2.43634 0.720001,4.727997 1.035004,6.860992l0.285004,1.963013l0.25499,1.781006l0.225006,1.587006" id="svg_1" stroke-width="5" stroke="#000000" fill="none"/>
  <path d="m43,192c2.333332,-16.666672 2.638103,-18.483749 2.965332,-20.317337c0.326778,-1.831085 0.662437,-3.634949 0.993,-5.390991c0.317497,-1.68663 0.624367,-3.280228 0.903,-4.761002c0.476044,-2.529907 0.651039,-3.553314 0.82,-4.465332c0.16222,-0.875641 0.346096,-1.785004 0.5895,-2.79451c0.286854,-1.189697 0.673088,-2.622467 1.1745,-4.369492c1.361134,-4.742462 2.305141,-7.846008 3.430668,-11.419998c1.260986,-4.004135 2.699917,-8.371109 4.374001,-13.023003c1.774384,-4.930603 3.713978,-10.067459 5.994003,-15.273003c4.720039,-10.776367 7.574272,-16.068207 10.605331,-21.281334c3.038353,-5.225677 6.346939,-10.294693 9.984001,-15.091499c3.61618,-4.769264 7.461143,-9.338615 11.783997,-13.336498c8.523651,-7.882877 13.541809,-10.864639 18.581337,-13.570667c5.036812,-2.704571 10.358772,-4.898838 15.843002,-6.634502c5.514664,-1.745296 11.206711,-3.083424 17.013,-3.8895c11.728638,-1.628265 17.752151,-1.561806 23.753326,-1.418667c6.018982,0.143562 12.03862,0.653446 18.004501,1.516502c5.955093,0.8615 11.857239,2.011703 17.599503,3.6315c11.359772,3.204403 16.733292,5.552719 21.962662,7.978664c5.173401,2.399982 10.136353,5.100101 14.854507,8.056499c4.655029,2.916847 9.099823,6.035545 13.189499,9.451504c7.964111,6.652138 11.372009,10.417068 14.574677,14.171997c3.133881,3.674294 5.940216,7.49398 8.339996,11.439003c2.346344,3.857155 4.392548,7.807297 5.819977,11.889c2.774139,7.932541 3.19989,12.114998 3.381348,16.202667c0.182129,4.102646 -0.156677,8.282372 -0.993011,12.449997c-0.861481,4.292908 -2.209534,8.665649 -4.142975,12.990005c-4.153107,9.288849 -7.295349,13.867218 -10.605347,18.589325c-3.466736,4.945694 -7.424255,9.876892 -11.834991,14.753998c-4.587189,5.07222 -9.607391,10.114822 -15.165009,14.934006c-11.689651,10.136459 -18.420425,14.727631 -25.342667,19.35466c-7.071442,4.726761 -14.467728,9.220169 -22.096497,13.503006c-7.682602,4.313065 -15.515976,8.407318 -23.491501,12.153c-15.744995,7.394592 -23.70224,10.456177 -31.544006,13.395996c-7.723846,2.895615 -15.427948,5.509109 -23.0895,7.888504c-7.564651,2.349274 -15.096283,4.489197 -22.594498,6.403503c-14.763412,3.769104 -22.111588,5.301514 -29.341331,6.817322c-7.075565,1.48349 -13.980003,2.800018 -20.647503,4.050018l-6.392498,1.149994l-6.072502,1.049988l-5.707499,0.950012" id="svg_2" stroke-width="5" stroke="#000000" fill="none"/>
  <path d="m190,282c0.057159,-1.700012 0.583954,-2.45874 0.956329,-3.32251c0.275528,-0.63913 0.531097,-1.516663 0.907669,-2.310822c0.226974,-0.478638 0.816956,-1.578827 1.184006,-2.200012c0.401367,-0.67926 0.844696,-1.416046 1.951996,-3c0.617477,-0.88327 1.311493,-1.802246 2.078995,-2.752502c0.810654,-1.003693 1.698792,-2.031189 2.673004,-3.067474c1.01799,-1.082855 2.09024,-2.208496 4.581329,-4.34668c1.317383,-1.130737 2.763016,-2.22995 4.322998,-3.326996c1.650101,-1.160431 3.45549,-2.319901 5.421005,-3.488998c2.102493,-1.25058 4.381378,-2.553223 9.58934,-5.184006c2.888092,-1.458908 5.983597,-2.914322 9.227997,-4.389008c3.339462,-1.517899 6.763153,-3.007217 10.235992,-4.442993c3.45932,-1.430191 6.870453,-2.846161 13.535995,-5.167999c3.115479,-1.08522 6.115204,-1.999466 8.983521,-2.787003c2.720428,-0.746933 5.322876,-1.367249 7.804504,-1.869003c2.348053,-0.474747 4.578796,-0.893616 8.711975,-1.343994c1.891296,-0.206085 3.677979,-0.309189 5.350525,-0.343506c1.558502,-0.031982 3.005646,0.004181 4.333496,0.115509c1.216156,0.101959 2.338196,0.18898 4.149323,0.727997c0.75473,0.224609 1.403259,0.527176 1.882507,0.934494c0.449219,0.381805 0.772339,0.903305 0.9375,1.501511c0.183472,0.664536 0.24231,1.470154 0.013336,3.397324c-0.139465,1.173874 -0.419189,2.465775 -0.774017,3.862503c-0.382111,1.50412 -0.86499,3.084778 -1.458008,4.717499c-0.618622,1.703201 -1.272858,3.474091 -3.101318,6.919998c-0.942017,1.775345 -2.052887,3.509262 -3.27301,5.227493c-1.256683,1.769714 -2.658386,3.524933 -4.190979,5.272522c-1.592072,1.81543 -3.297516,3.669403 -7.202667,7.333313c-2.079193,1.950745 -4.309753,3.871613 -6.613525,5.794525c-2.324219,1.940002 -4.686829,3.825378 -7.054474,5.641479c-2.311768,1.773254 -4.548004,3.48056 -8.832001,6.397339c-1.913162,1.302582 -3.71434,2.43045 -5.388016,3.415497c-1.524826,0.89743 -2.93718,1.663147 -4.235992,2.308502c-1.167526,0.580109 -2.223358,1.079468 -4.042664,1.776001c-0.744736,0.285126 -1.397736,0.497101 -1.954498,0.643494c-0.453491,0.119232 -0.816193,0.197144 -1.081512,0.184509c-0.173004,-0.00824 -0.294174,-0.120544 -0.130661,-0.328003c0.158997,-0.201752 0.485443,-0.373199 0.886505,-0.607513c0.503418,-0.294098 1.132813,-0.624573 1.885498,-1.012482c0.881409,-0.454254 1.904648,-0.968048 4.394669,-2.213348c1.477921,-0.739136 3.104111,-1.551849 4.875,-2.414978c1.89563,-0.92392 3.911835,-1.887115 6.044998,-2.865021c2.223358,-1.019257 4.524719,-2.080231 9.41333,-4.053314c2.520325,-1.017242 5.121857,-1.981476 7.806,-2.896515c2.750549,-0.937683 5.60199,-1.82193 8.562012,-2.635498c3.05072,-0.83847 6.213837,-1.676331 12.965332,-2.967987c3.554047,-0.679932 7.229523,-1.226898 10.972504,-1.72052c3.770508,-0.497253 7.54599,-0.908569 11.287476,-1.2435c3.667084,-0.328278 7.229889,-0.633972 13.906677,-0.869324c3.045227,-0.107361 5.891937,-0.115692 8.540985,-0.011993c2.466156,0.096527 4.759094,0.289429 6.867004,0.635986c1.963562,0.322815 3.842834,0.627014 6.925354,2.042664c1.432251,0.657745 2.706116,1.54892 3.760498,2.617523c1.061249,1.075531 1.930939,2.405579 2.563477,3.922485c0.679993,1.630676 1.243591,3.522125 1.509338,7.959991c0.153656,2.566071 -0.021088,5.369324 -0.3255,8.353516c-0.322876,3.165314 -0.84906,6.46991 -1.558502,9.874481c-0.732605,3.515686 -1.532196,7.125916 -3.94931,14.272003c-1.224365,3.61972 -2.695557,7.170898 -4.308014,10.660522c-1.611969,3.488586 -3.387787,6.891479 -5.31601,10.183502c-1.914703,3.268951 -3.861298,6.499878 -8.375977,12.322662c-2.208282,2.848114 -4.597992,5.498413 -7.096497,7.992004c-2.488068,2.483215 -5.130035,4.81369 -7.915527,6.983978c-2.809601,2.189087 -5.727356,4.341919 -12.154663,8.024017c-3.320953,1.902527 -6.85257,3.612579 -10.511993,5.248505c-3.743378,1.673462 -7.639404,3.230103 -11.664001,4.699493c-4.110199,1.500641 -8.333923,2.96405 -17.157318,5.552002c-4.530457,1.328796 -9.151031,2.539612 -13.806,3.701996c-4.646515,1.160278 -9.277344,2.214661 -13.84201,3.234009l-4.472672,0.955322l-4.348663,0.887329" id="svg_6" stroke-width="5" stroke="#000000" fill="none"/>
  <path d="m388,223c0,3.091995 0,3.755997 0,4.473999c0,0.753998 0,1.526001 0,2.298004c0,0.753998 0.004211,1.472 -0.000153,3.238831c-0.002197,0.891678 -0.019501,1.843369 -0.035858,2.429169c-0.019714,0.705872 -0.048157,1.566711 -0.130646,3.893326c-0.054077,1.524872 -0.118286,3.278687 -0.190521,5.230499c-0.0784,2.118851 -0.163086,4.373688 -0.253479,6.733505c-0.093231,2.433868 -0.187653,4.910797 -0.389343,9.869324c-0.098663,2.425903 -0.199036,4.806763 -0.304504,7.147522c-0.103912,2.305908 -0.212799,4.581848 -0.331482,6.832489c-0.117676,2.231018 -0.234528,4.447632 -0.53067,8.853333c-0.147919,2.200867 -0.314972,4.40332 -0.503998,6.609009c-0.189636,2.212982 -0.402496,4.433746 -0.64801,6.662994c-0.24707,2.2435 -0.500763,4.50415 -1.181335,9.06134c-0.345123,2.310944 -0.744507,4.625824 -1.166992,6.936005c-0.420227,2.297852 -0.866516,4.565674 -1.32901,6.791992c-0.452362,2.177673 -0.901825,4.292847 -1.837341,8.272003c-0.435791,1.853638 -0.874847,3.613068 -1.318481,5.28598c-0.424744,1.601685 -0.85788,3.134064 -1.309509,4.60202c-0.437714,1.422668 -0.871857,2.808075 -1.872009,5.445313c-0.491821,1.296844 -1.027618,2.563629 -1.576477,3.809998c-0.543274,1.233673 -1.106262,2.442261 -1.675507,3.630005c-0.561829,1.172272 -1.13028,2.320862 -2.248016,4.559998c-0.544312,1.090424 -1.080078,2.160614 -1.609497,3.210022c-0.519928,1.030609 -1.033752,2.04129 -1.546478,3.029999c-0.503693,0.971313 -0.997162,1.926666 -2.010681,3.759979c-0.493927,0.893463 -0.996063,1.762878 -1.495514,2.614502c-0.491272,0.837677 -0.982727,1.656891 -1.468475,2.461517c-0.477966,0.791718 -0.954224,1.5672 -1.869354,3.090668c-0.446899,0.743958 -0.881714,1.479736 -1.309479,2.204987c-0.42157,0.714752 -0.836334,1.420013 -1.246521,2.11499l-0.406158,0.685028l-0.403168,0.674988" id="svg_11" stroke-width="5" stroke="#000000" fill="none"/>
  <path d="m371,237c1.166656,5 1.547546,6.412537 1.989319,8.016006c0.48175,1.748581 0.996399,3.592651 1.531525,5.483994c0.535522,1.892654 1.061066,3.73793 1.576477,5.483994c0.891296,3.019394 1.270264,4.206497 1.600006,5.207993c0.287201,0.872314 0.563599,1.663239 0.823517,2.433014c0.269501,0.798218 0.561127,1.679321 0.8685,2.703003c0.800262,2.665222 1.263336,4.416168 1.810669,6.429321c0.611206,2.248138 1.270264,4.702179 1.987488,7.326019c0.755951,2.765533 1.545441,5.640991 2.392487,8.585999c1.727142,6.004913 2.650574,8.99234 3.597351,11.963989c0.946259,2.970062 1.933228,5.931793 2.968506,8.887512c1.040649,2.971069 2.125305,5.950745 3.283478,8.932495c2.355988,6.065552 3.663696,9.11496 4.992004,12.185333c1.332642,3.080383 2.704346,6.136047 4.099518,9.152985c1.377014,2.977692 2.756927,5.886505 4.144501,8.703003c2.637573,5.35379 3.937866,7.829926 5.189331,10.185333c1.193359,2.246063 2.359802,4.37204 3.499481,6.382507c1.086121,1.915985 2.143768,3.729279 3.184509,5.4375c1.938019,3.180969 2.887573,4.632294 3.801331,6.005341c0.86673,1.302368 1.709045,2.518616 2.535004,3.640503c0.774811,1.052399 1.518494,2.022034 2.265015,2.875488c1.322662,1.512146 1.979401,2.103546 2.602661,2.604004c0.567383,0.455597 1.125854,0.822754 1.673981,1.083008c0.504669,0.239624 1.006866,0.407593 1.494019,0.453003c0.918701,0.085663 1.377899,-0.044098 1.813324,-0.20401c0.461487,-0.169464 0.928406,-0.446838 1.401001,-0.811493c0.532593,-0.41095 1.086304,-0.939636 1.67099,-1.576508c1.409149,-1.534851 2.164154,-2.521912 3.003998,-3.608002c0.919434,-1.188995 1.884766,-2.502655 2.887512,-3.940491c1.071442,-1.536346 2.179688,-3.190186 3.292511,-4.975525c2.39978,-3.850098 3.579803,-5.972565 4.782654,-8.187988c1.243164,-2.289703 2.466858,-4.674896 3.653992,-7.148987c1.210724,-2.523224 2.39032,-5.112305 3.473999,-7.779022c2.19281,-5.396149 3.10849,-8.18457 3.992004,-10.985321c0.885315,-2.806519 1.683899,-5.645508 2.408997,-8.5065c0.725647,-2.86322 1.384674,-5.744476 1.959015,-8.64151c1.146637,-5.783661 1.582397,-8.694244 2.003998,-11.605316c0.422791,-2.919403 0.78833,-5.863281 1.099487,-8.836517c0.314392,-3.004211 0.582458,-6.052521 0.784515,-9.151489c0.415039,-6.366058 0.512665,-9.651886 0.600006,-12.993347c0.088531,-3.386597 0.128113,-6.808014 0.115479,-10.250977c-0.012665,-3.453125 -0.066559,-6.905029 -0.199493,-10.341003c-0.262573,-6.786545 -0.520813,-10.108978 -0.797333,-13.370667c-0.270874,-3.195068 -0.593353,-6.308884 -0.961487,-9.330002c-0.356476,-2.925598 -0.742981,-5.74115 -1.186523,-8.430008c-0.824036,-4.995514 -1.312775,-7.266235 -1.791992,-9.391998c-0.448944,-1.99147 -0.91687,-3.841492 -1.396484,-5.552994c-0.445465,-1.589676 -0.892975,-3.051407 -1.351501,-4.383011c-0.804504,-2.336411 -1.216644,-3.325424 -1.596008,-4.214661c-0.341614,-0.800797 -0.672302,-1.509216 -0.98999,-2.1315c-0.283203,-0.554703 -0.552979,-1.038574 -0.809998,-1.456497c-0.428406,-0.696594 -0.627289,-0.972031 -0.802673,-1.213333c-0.153687,-0.211456 -0.298676,-0.388 -0.429016,-0.538498l-0.120331,-0.125504l-0.112335,-0.1035l-0.106323,-0.084503" id="svg_12" stroke-width="5" stroke="#000000" fill="none"/>
  <path d="m597,225c-0.664001,-2.206665 -1.057495,-3.063583 -1.5,-4c-0.223755,-0.47345 -0.658142,-1.375626 -1.137512,-2.494995c-0.250305,-0.584427 -0.532471,-1.223877 -1.034973,-2.040009c-0.335938,-0.545624 -1.32135,-1.969452 -1.987366,-2.887665c-0.771667,-1.063873 -1.663757,-2.248795 -2.689453,-3.528c-1.117004,-1.393082 -2.357117,-2.861145 -3.733521,-4.373993c-1.453491,-1.59758 -4.729736,-4.864914 -6.554016,-6.496338c-1.883362,-1.684265 -3.885559,-3.342224 -5.980469,-4.983002c-2.137878,-1.674438 -4.359985,-3.315598 -6.646545,-4.929001c-2.309448,-1.629532 -7.060059,-4.78183 -9.478638,-6.301666c-2.414917,-1.517532 -4.850037,-2.98558 -7.297485,-4.403992c-2.43103,-1.408875 -4.865784,-2.763397 -7.297546,-4.062012c-2.401733,-1.282578 -7.155884,-3.679764 -9.496338,-4.790833c-2.290466,-1.087326 -4.54425,-2.107986 -6.751465,-3.064499c-2.138672,-0.926804 -4.21814,-1.786102 -6.229492,-2.578491c-1.923584,-0.757813 -5.514893,-2.076218 -7.168518,-2.636002c-1.546631,-0.523544 -2.997375,-0.981827 -4.350006,-1.3815c-1.24762,-0.368652 -2.398254,-0.682739 -3.449982,-0.949509c-0.948486,-0.240585 -2.548431,-0.606476 -3.201508,-0.733002c-0.559204,-0.108337 -1.038147,-0.189453 -1.444489,-0.193497c-0.341858,-0.003403 -0.642792,0.047897 -0.8685,0.184509c-0.221222,0.133896 -0.549988,0.637543 -0.680511,0.974823c-0.15213,0.393127 -0.272034,0.87233 -0.375,1.434006c-0.118958,0.648941 -0.209381,1.401794 -0.285004,2.261993c-0.085663,0.974472 -0.200256,3.305832 -0.240509,4.675507c-0.04425,1.506348 -0.073181,3.147003 -0.106476,4.918503c-0.035706,1.89949 -0.072083,3.924088 -0.124512,6.070496c-0.055359,2.26561 -0.217346,7.141754 -0.33316,9.748337c-0.121216,2.728119 -0.269501,5.587753 -0.429016,8.5905c-0.167725,3.156937 -0.351227,6.478561 -0.536987,9.976501c-0.195679,3.684723 -0.595093,11.659317 -0.791016,15.963333c-0.204254,4.486633 -0.401459,9.119598 -0.599976,13.861496c-0.201508,4.813766 -0.3992,9.662689 -0.600006,14.509491c-0.199188,4.807861 -0.597931,14.1586 -0.799835,18.639679c-0.196838,4.368256 -0.397614,8.660248 -0.589508,12.913483c-0.191772,4.251099 -0.380249,8.53714 -0.553497,12.895508c-0.177551,4.466949 -0.496643,13.876312 -0.635834,18.876678c-0.143646,5.16098 -0.26947,10.424286 -0.395996,15.730499c-0.126129,5.290131 -0.246063,10.505463 -0.377991,15.586487c-0.126923,4.888306 -0.401855,13.850006 -0.568848,17.819519c-0.15271,3.630463 -0.324432,6.950653 -0.514496,9.98999c-0.17453,2.79068 -0.36615,5.360687 -0.568512,7.73999c-0.188873,2.220703 -0.591797,6.300415 -0.795502,8.215179c-0.196442,1.846527 -0.396027,3.624786 -0.599976,5.33551c-0.196198,1.645599 -0.395752,3.225891 -0.600006,4.741486c-0.195923,1.453705 -0.596375,4.175079 -0.7995,5.443848c-0.193054,1.205872 -0.386505,2.342743 -0.568512,3.40799c-0.169037,0.98941 -0.327515,1.898071 -0.46048,2.723999c-0.118622,0.736847 -0.298157,1.930908 -0.303528,2.380341c-0.004059,0.338684 0.078094,0.617035 0.264008,0.644989c0.269897,0.040588 0.667053,-0.237762 1.182007,-0.61499c0.697601,-0.511047 2.586823,-2.144104 3.841675,-3.2435c1.470612,-1.288422 3.150513,-2.768951 5.066986,-4.405518c2.128174,-1.817352 4.488678,-3.787689 7.101013,-5.8815c2.824066,-2.263519 9.228943,-7.13385 12.81131,-9.716339c3.763733,-2.713226 7.720215,-5.46701 11.804993,-8.275482c4.161743,-2.86142 8.386108,-5.719604 12.615051,-8.581512c4.197693,-2.840729 12.351501,-8.365021 16.218811,-11.034332c3.723083,-2.569733 7.280334,-5.06073 10.651489,-7.489502c3.214111,-2.315643 6.23938,-4.552887 9.0495,-6.73349c2.643738,-2.051483 7.288025,-5.918457 9.250183,-7.756836c1.809387,-1.695221 3.403198,-3.340515 4.755005,-4.958984c1.249268,-1.495697 2.303833,-2.972839 3.13501,-4.437012c0.779968,-1.373993 1.842834,-4.117706 2.124817,-5.476837c0.27594,-1.330231 0.37677,-2.684235 0.28949,-4.027496c-0.08844,-1.361267 -0.37262,-2.74295 -0.826477,-4.117493c-0.473816,-1.434937 -1.93335,-4.364868 -2.882996,-5.860504c-0.997131,-1.570404 -2.151367,-3.132111 -3.430542,-4.674011c-1.313538,-1.583344 -2.74469,-3.123749 -4.276489,-4.60199c-1.544495,-1.490479 -4.853638,-4.242065 -6.600525,-5.466675c-1.741943,-1.221161 -3.56543,-2.335144 -5.462952,-3.34201c-1.921021,-1.019348 -3.9375,-1.937225 -6.039001,-2.765991c-2.154724,-0.849762 -6.768738,-2.328674 -9.220703,-2.976318c-2.49762,-0.659698 -5.028748,-1.23114 -7.550964,-1.695007c-2.457703,-0.451996 -4.832825,-0.796692 -7.083008,-0.975006c-2.076477,-0.164551 -5.613037,-0.086792 -6.951355,0.282684c-1.122864,0.309998 -2.030884,0.820587 -2.546997,1.502991c-0.474609,0.627533 -0.63855,1.452148 -0.531006,2.259003c0.116272,0.872314 1.068481,2.666901 1.775696,3.537323c0.760681,0.936279 1.705383,1.83197 2.765991,2.721008c1.127991,0.945557 2.397339,1.850647 3.737976,2.792999l1.424683,0.956329" id="svg_39" stroke-width="5" stroke="#000000" fill="none"/>
 </g>
</svg>